<?xml version="1.0" encoding="UTF-8" ?>
<!DOCTYPE svg PUBLIC "-//W3C//DTD SVG 1.1//EN" "http://www.w3.org/Graphics/SVG/1.1/DTD/svg11.dtd">
<svg viewBox="0 0 80 80" version="1.1" xmlns="http://www.w3.org/2000/svg">
	<path fill-opacity="0" fill="#ffffff" d=" M 0.00 0.00 L 80.00 0.00 L 80.00 80.00 L 0.00 80.00 L 0.00 0.00 Z" />
	<path fill="#030303" d=" M 32.36 2.66 C 40.88 1.22 50.05 2.05 57.72 6.25 C 68.22 11.63 75.81 22.22 77.64 33.87 C 78.76 42.71 77.44 52.10 72.63 59.73 C 66.19 70.70 53.79 77.98 41.03 78.03 C 30.45 78.54 19.91 74.08 12.57 66.51 C 0.96 54.77 -1.38 35.17 6.98 20.96 C 12.35 11.62 21.79 4.79 32.36 2.66 Z" />
	<path fill="#bb5810" d=" M 33.30 8.37 C 48.71 4.74 65.67 14.35 70.57 29.38 C 75.96 43.83 69.09 61.41 55.41 68.48 C 42.19 75.98 24.04 72.28 14.77 60.24 C 5.72 49.30 5.31 32.36 13.85 21.01 C 18.46 14.58 25.56 10.00 33.30 8.37 Z" />
	<path fill="#030303" d=" M 10.69 39.80 C 10.81 29.56 16.58 19.83 25.35 14.61 C 26.47 16.46 27.57 18.31 28.67 20.16 C 21.83 24.27 17.31 31.80 17.17 39.81 C 15.01 39.81 12.85 39.81 10.69 39.80 Z" />
	<path fill="#030303" d=" M 51.41 20.17 C 52.51 18.33 53.62 16.48 54.73 14.64 C 63.47 19.87 69.24 29.57 69.35 39.80 C 67.19 39.81 65.02 39.81 62.86 39.81 C 62.74 31.80 58.21 24.32 51.41 20.17 Z" />
	<path fill="#030303" d=" M 21.44 39.80 C 21.65 33.36 25.20 27.20 30.79 23.96 C 31.86 25.79 32.92 27.61 33.97 29.45 C 30.48 31.80 28.20 35.57 27.87 39.78 C 25.73 39.80 23.58 39.81 21.44 39.80 Z" />
	<path fill="#030303" d=" M 49.33 23.98 C 54.86 27.27 58.32 33.35 58.66 39.74 C 56.50 39.80 54.34 39.82 52.19 39.80 C 51.83 35.60 49.58 31.83 46.11 29.46 C 47.16 27.62 48.24 25.80 49.33 23.98 Z" />
	<path fill="#030303" d=" M 37.38 34.36 C 41.96 31.82 47.87 37.03 46.00 41.90 C 44.86 45.95 39.36 47.72 36.14 44.93 C 32.49 42.30 33.23 36.07 37.38 34.36 Z" />
	<path fill="#030303" d=" M 30.79 56.13 C 31.85 54.28 32.92 52.43 34.00 50.58 C 37.82 52.39 42.35 52.42 46.13 50.50 C 47.22 52.36 48.30 54.22 49.38 56.08 C 43.65 59.23 36.53 59.28 30.79 56.13 Z" />
	<path fill="#030303" d=" M 25.41 65.29 C 26.52 63.49 27.61 61.68 28.69 59.86 C 35.66 63.73 44.49 63.73 51.44 59.80 C 52.56 61.63 53.66 63.48 54.76 65.33 C 45.86 70.48 34.24 70.67 25.41 65.29 Z" />
</svg>